<?xml version="1.0" standalone="no"?>
<!DOCTYPE svg PUBLIC "-//W3C//DTD SVG 20010904//EN"
 "http://www.w3.org/TR/2001/REC-SVG-20010904/DTD/svg10.dtd">
<svg version="1.0" xmlns="http://www.w3.org/2000/svg"
 width="512.000000pt" height="512.000000pt" viewBox="0 0 512.000000 512.000000"
 preserveAspectRatio="xMidYMid meet">

<g transform="translate(0.000000,512.000000) scale(0.100000,-0.100000)"
fill="#ff3c00" stroke="none">
<path d="M1463 4680 c-321 -32 -580 -147 -786 -348 -191 -188 -309 -429 -352
-719 -14 -94 -15 -248 -12 -1213 3 -1213 -1 -1129 64 -1335 136 -432 486 -737
958 -832 84 -17 168 -18 1220 -18 l1130 0 105 23 c514 114 861 459 965 960 32
155 37 343 33 1347 -5 1077 -3 1051 -63 1260 -32 113 -119 289 -185 377 -158
209 -356 351 -603 433 -217 71 -174 69 -1342 71 -577 1 -1087 -2 -1132 -6z
m2214 -425 c244 -40 439 -161 560 -348 58 -88 89 -161 121 -277 l27 -95 3
-1025 c3 -1065 1 -1136 -38 -1278 -69 -245 -263 -457 -495 -541 -187 -68 -127
-64 -1230 -68 -667 -3 -1037 -1 -1112 6 -390 38 -666 255 -752 592 -40 157
-42 232 -38 1294 4 1095 2 1065 55 1215 105 301 353 490 697 533 17 2 498 5
1070 5 878 2 1054 0 1132 -13z"/>
<path d="M3663 3887 c-110 -42 -173 -132 -173 -248 0 -230 272 -346 438 -186
127 121 95 339 -62 419 -49 25 -156 33 -203 15z"/>
<path d="M2352 3596 c-245 -47 -452 -155 -622 -326 -451 -451 -451 -1179 0
-1630 428 -429 1107 -453 1570 -58 182 156 310 367 373 616 18 74 22 113 21
262 0 155 -3 186 -26 271 -115 427 -424 735 -847 846 -120 31 -353 41 -469 19z
m392 -428 c125 -34 220 -92 321 -193 103 -102 159 -196 196 -331 28 -98 30
-255 6 -356 -61 -250 -245 -450 -492 -534 -106 -36 -276 -45 -388 -20 -149 33
-314 134 -408 250 -66 81 -133 217 -154 311 -26 114 -17 283 19 390 90 266
323 463 596 504 85 13 215 4 304 -21z"/>
</g>
</svg>
